<svg xmlns="http://www.w3.org/2000/svg" viewBox="0 0 1200 600" class="ac-amber">
  <!-- o hook levanta a bandeira (set(true)); o loop do job confere a cada volta (get()) e para entre um lote e outro — os lotes commitados saem à direita -->
  <rect class="cv-shape" x="100" y="326" width="150" height="64" rx="32"/><text class="cv-mono cv-detail" x="175" y="372" font-size="40" text-anchor="middle">hook</text><path class="cv-ac-line cv-bold" d="M250 358 H296 a24 24 0 0 0 24 -24 V105 a24 24 0 0 1 24 -24 H586"/><path class="cv-ac-line cv-bold" d="M564 65.6 L586 81 L564 96.4"/><text class="cv-mono cv-ac" x="448" y="129" font-size="40" text-anchor="middle">set(true)</text><g transform="translate(600 358)"><circle class="cv-line cv-bold" r="200"/><path class="cv-line cv-bold" d="M0 -200 V-320"/><path class="cv-ac" d="M0 -320 L150 -277 L0 -234 Z"/><path class="cv-line cv-bold" transform="translate(0 200) rotate(180)" d="M-18 -15 L0 0 L-18 15"/><path class="cv-line cv-bold" transform="translate(-200 0) rotate(270)" d="M-18 -15 L0 0 L-18 15"/><path class="cv-line cv-bold" transform="translate(141.4 -141.4) rotate(405)" d="M-18 -15 L0 0 L-18 15"/><g transform="translate(-141.4 141.4)"><rect class="cv-shape cv-dash" x="-32" y="-32" width="64" height="64" rx="12"/><circle class="cv-muted" cx="-14" r="4"/><circle class="cv-muted" r="4"/><circle class="cv-muted" cx="14" r="4"/></g><text class="cv-mono cv-detail" x="0" y="17" font-size="48" text-anchor="middle">get()</text></g><path class="cv-muted-line" d="M808 358 H900"/><path class="cv-muted-line" d="M878 342.6 L900 358 L878 373.4"/><g transform="translate(946 358)"><rect class="cv-shape" x="-32" y="-32" width="64" height="64" rx="12"/><path class="cv-detail-line cv-bold" d="M-16 2 L-5 13 L17 -11"/></g><g transform="translate(1056 358)"><rect class="cv-shape" x="-32" y="-32" width="64" height="64" rx="12"/><path class="cv-detail-line cv-bold" d="M-16 2 L-5 13 L17 -11"/></g>
</svg>
