<svg xmlns="http://www.w3.org/2000/svg" viewBox="0 0 1200 600" class="ac-pink">
  <g transform="translate(0 -18.2)">
  <!-- traceparent (version-trace-id-parent-id-flags); o trace-id, em acento, reaparece na linha do outbox, na mensagem e nos logs -->
  <g transform="translate(600 165) scale(1.55)"><rect class="cv-shape cv-bold" x="-300" y="-60" width="600" height="120" rx="60"/><rect class="cv-muted" x="-268" y="-18" width="46" height="36" rx="18"/><rect class="cv-muted" x="-210" y="-6" width="14" height="12" rx="6"/><rect class="cv-ac" x="-184" y="-18" width="200" height="36" rx="18"/><rect class="cv-muted" x="28" y="-6" width="14" height="12" rx="6"/><rect class="cv-detail" x="54" y="-18" width="130" height="36" rx="18"/><rect class="cv-muted" x="196" y="-6" width="14" height="12" rx="6"/><rect class="cv-muted" x="222" y="-18" width="46" height="36" rx="18"/></g>
  <path class="cv-muted-line" d="M400 193 C400 248 270 236 270 284"/><path class="cv-muted-line" d="M258 278 L270 292 L282 278"/>
  <g transform="translate(270 435)"><rect class="cv-shape cv-bold" x="-110" y="-130" width="220" height="260" rx="20"/><line class="cv-line" x1="-110" y1="-84" x2="110" y2="-84"/><circle class="cv-muted" cx="-84" cy="-107" r="8"/><rect class="cv-detail" x="-60" y="-113" width="120" height="12" rx="6"/><line class="cv-muted-line" x1="-40" y1="-84" x2="-40" y2="130"/><rect class="cv-muted" x="-96" y="-64" width="34" height="12" rx="6"/><rect class="cv-muted" x="-22" y="-64" width="110" height="12" rx="6"/><rect class="cv-muted" x="-96" y="-10" width="34" height="12" rx="6"/><rect class="cv-ac" x="-22" y="-14" width="110" height="20" rx="10"/><rect class="cv-muted" x="-96" y="44" width="34" height="12" rx="6"/><rect class="cv-muted" x="-22" y="44" width="92" height="12" rx="6"/><rect class="cv-muted" x="-96" y="98" width="34" height="12" rx="6"/><rect class="cv-muted" x="-22" y="98" width="110" height="12" rx="6"/></g>
  <path class="cv-muted-line" d="M395 435 H475"/><path class="cv-muted-line" d="M461 421 L475 435 L461 449"/>
  <g transform="translate(602 435) scale(1.25)"><rect class="cv-shape cv-bold" x="-90" y="-60" width="180" height="120" rx="14"/><path class="cv-line" d="M-90 -48 L0 8 L90 -48"/><rect class="cv-ac" x="-52" y="24" width="104" height="20" rx="10"/></g>
  <path class="cv-muted-line" d="M729 435 H809"/><path class="cv-muted-line" d="M795 421 L809 435 L795 449"/>
  <g transform="translate(932 435) scale(1.35)"><rect class="cv-ac" x="-80" y="-73" width="34" height="14" rx="7"/><rect class="cv-muted" x="-36" y="-72" width="116" height="12" rx="6"/><rect class="cv-ac" x="-80" y="-29" width="34" height="14" rx="7"/><rect class="cv-muted" x="-36" y="-28" width="96" height="12" rx="6"/><rect class="cv-ac" x="-80" y="15" width="34" height="14" rx="7"/><rect class="cv-muted" x="-36" y="16" width="110" height="12" rx="6"/><rect class="cv-ac" x="-80" y="59" width="34" height="14" rx="7"/><rect class="cv-muted" x="-36" y="60" width="84" height="12" rx="6"/></g>
</g>
</svg>
