<svg xmlns="http://www.w3.org/2000/svg" viewBox="0 0 1600 400">
  <!-- o tópico publica de tudo; a filter policy deixa passar só o que interessa para cada fila -->
  <circle class="cv-shape" cx="150" cy="200" r="46"/><text class="cv-mono cv-detail" x="150" y="208" font-size="24" text-anchor="middle" >SNS</text><line class="cv-muted-line" x1="200" y1="200" x2="320" y2="200"/><path class="cv-muted-line" d="M306 188 L320 200 L306 212"/><circle class="cv-muted" cx="370" cy="140" r="13"/><circle class="cv-solid" cx="416" cy="200" r="13"/><circle class="cv-muted" cx="462" cy="260" r="13"/><circle class="cv-solid" cx="508" cy="140" r="13"/><g transform="translate(800 170) scale(0.74)"><path class="cv-shape cv-bold" d="M-170 -120 H170 L52 26 V150 H-52 V26 Z"/><circle class="cv-solid" cx="-110" cy="-84" r="20"/><circle class="cv-muted" cx="-30" cy="-84" r="20"/><circle class="cv-solid" cx="58" cy="-84" r="20"/><circle class="cv-muted" cx="-62" cy="-26" r="20"/><circle class="cv-solid" cx="30" cy="-26" r="20"/><circle class="cv-solid" cx="0" cy="214" r="20"/></g><line class="cv-muted-line" x1="960" y1="268" x2="1080" y2="268"/><path class="cv-muted-line" d="M1066 256 L1080 268 L1066 280"/><rect class="cv-shape cv-bold" x="1120" y="168" width="100" height="100" rx="18"/><circle class="cv-solid" cx="1170" cy="218" r="16"/><rect class="cv-shape cv-bold" x="1240" y="168" width="100" height="100" rx="18"/><circle class="cv-solid" cx="1290" cy="218" r="16"/><rect class="cv-shape cv-bold" x="1360" y="168" width="100" height="100" rx="18"/><circle class="cv-solid" cx="1410" cy="218" r="16"/>
</svg>
