<svg xmlns="http://www.w3.org/2000/svg" viewBox="0 0 1600 400">
  <!-- várias linhas de log viram um único evento largo com todos os campos -->
  <circle class="cv-muted" cx="150" cy="110" r="7"/><line class="cv-muted-line cv-thin" x1="172" y1="110" x2="330" y2="110"/><circle class="cv-muted" cx="150" cy="150" r="7"/><line class="cv-muted-line cv-thin" x1="172" y1="150" x2="280" y2="150"/><circle class="cv-muted" cx="150" cy="190" r="7"/><line class="cv-muted-line cv-thin" x1="172" y1="190" x2="230" y2="190"/><circle class="cv-muted" cx="150" cy="230" r="7"/><line class="cv-muted-line cv-thin" x1="172" y1="230" x2="330" y2="230"/><circle class="cv-muted" cx="150" cy="270" r="7"/><line class="cv-muted-line cv-thin" x1="172" y1="270" x2="280" y2="270"/><path class="cv-muted-line" d="M360 110 C440 110 440 200 520 200"/><path class="cv-muted-line" d="M360 150 C440 150 440 200 520 200"/><path class="cv-muted-line" d="M360 190 C440 190 440 200 520 200"/><path class="cv-muted-line" d="M504 187 L520 200 L504 213"/><path class="cv-muted-line" d="M360 230 C440 230 440 200 520 200"/><path class="cv-muted-line" d="M360 270 C440 270 440 200 520 200"/><g transform="translate(940 200) scale(0.92)"><rect class="cv-shape cv-bold" x="-320" y="-40" width="640" height="80" rx="40"/><circle class="cv-solid" cx="-250" cy="0" r="18"/><circle class="cv-detail" cx="-90" cy="0" r="18"/><circle class="cv-solid" cx="70" cy="0" r="18"/><circle class="cv-detail" cx="210" cy="0" r="18"/></g>
</svg>
