<svg xmlns="http://www.w3.org/2000/svg" viewBox="0 0 800 1000" class="ac-amber">
  <!-- retrato: em cima a padaria da esquina, embaixo o carro escolhido para ir ate ela -->
  <path class="cv-soft-line" d="M70 620 H730"/>
  <path class="cv-muted-line" d="M55 930 H745"/>
  <g transform="translate(400 620) scale(1.37)">
    <rect class="cv-shape cv-bold" x="-110" y="-330" width="220" height="330" rx="12"/>
    <rect class="cv-detail-line cv-thin" x="-74" y="-296" width="60" height="58" rx="8"/>
    <rect class="cv-detail-line cv-thin" x="14" y="-296" width="60" height="58" rx="8"/>
    <path class="cv-solid" d="M-132 -212 L132 -212 L116 -180 C116 -150 58 -150 58 -180 C58 -150 0 -150 0 -180 C0 -150 -58 -150 -58 -180 C-58 -150 -116 -150 -116 -180 Z"/>
    <rect class="cv-line" x="-86" y="-126" width="72" height="74" rx="6"/>
    <rect class="cv-line" x="14" y="-126" width="68" height="126" rx="8"/>
    <circle class="cv-detail" cx="26" cy="-60" r="6"/>
    <rect class="cv-shape cv-bold" x="-100" y="-400" width="200" height="74" rx="14"/>
    <g transform="translate(0 -363) rotate(-12) scale(1.05)">
      <rect class="cv-solid" x="-52" y="-14" width="104" height="28" rx="14"/>
      <rect class="cv-cut" x="-34" y="-10" width="9" height="20" rx="4" transform="rotate(24 -29.5 0)"/>
      <rect class="cv-cut" x="-4" y="-10" width="9" height="20" rx="4" transform="rotate(24 0.5 0)"/>
      <rect class="cv-cut" x="26" y="-10" width="9" height="20" rx="4" transform="rotate(24 30.5 0)"/>
    </g>
  </g>
  <!-- o trajeto inteiro: do carro ate a porta -->
  <path class="cv-detail-line cv-thin cv-dash" d="M330 736 L450 636"/>
  <path class="cv-detail-line cv-thin" d="M442 651 L450 636 L433 640"/>
  <g transform="translate(400 930) scale(1.3)">
    <path class="cv-ac-shape cv-bold" d="M-250 -30 L-250 -86 C-250 -97 -244 -102 -232 -104 C-188 -115 -152 -131 -114 -143 C-102 -147 -92 -149 -80 -149 L-30 -149 C-6 -149 8 -137 26 -113 L48 -85 C118 -71 196 -59 250 -49 C255 -48 258 -45 258 -41 L258 -30 L197 -30 C197 -94 113 -94 113 -30 L-118 -30 C-118 -94 -202 -94 -202 -30 Z"/>
    <path class="cv-ac-soft" d="M-70 -139 L-30 -139 C-12 -139 0 -129 14 -109 L-70 -109 Z"/>
    <path class="cv-ac" d="M212 -66 L246 -56 L248 -46 L214 -54 Z"/>
    <circle class="cv-ac-shape cv-bold" cx="-160" cy="-38" r="38"/>
    <circle class="cv-ac" cx="-160" cy="-38" r="13"/>
    <circle class="cv-ac-shape cv-bold" cx="155" cy="-38" r="38"/>
    <circle class="cv-ac" cx="155" cy="-38" r="13"/>
  </g>
</svg>
